{
    "asset" : {
        "generator" : "Khronos glTF Blender I/O v1.3.48",
        "version" : "2.0"
    },
    "scene" : 0,
    "scenes" : [
        {
            "name" : "Scene",
            "nodes" : [
                0,
                1,
                2,
                3,
                4
            ]
        }
    ],
    "nodes" : [
        {
            "name" : "Light",
            "rotation" : [
                -0.10106277465820312,
                0.8397707343101501,
                0.48704805970191956,
                -0.21761353313922882
            ],
            "translation" : [
                0.005709171295166016,
                1.3615814447402954,
                1.8743149042129517
            ]
        },
        {
            "name" : "Camera",
            "rotation" : [
                0.4707614481449127,
                0.38110870122909546,
                -0.23611003160476685,
                0.7598630785942078
            ],
            "translation" : [
                7.358891487121582,
                4.958309173583984,
                6.925790786743164
            ]
        },
        {
            "mesh" : 0,
            "name" : "path110",
            "rotation" : [
                0.7071068286895752,
                0,
                0,
                0.7071068286895752
            ],
            "scale" : [
                8.487683296203613,
                8.487683296203613,
                8.487683296203613
            ],
            "translation" : [
                -1.3381280899047852,
                -0.2808907628059387,
                -0.1837470680475235
            ]
        },
        {
            "mesh" : 1,
            "name" : "path112",
            "rotation" : [
                0.7071068286895752,
                0,
                0,
                0.7071068286895752
            ],
            "scale" : [
                8.487683296203613,
                8.487683296203613,
                8.487683296203613
            ],
            "translation" : [
                -1.304970622062683,
                -0.22851558029651642,
                -0.19148486852645874
            ]
        },
        {
            "mesh" : 2,
            "name" : "path114",
            "rotation" : [
                0.7071068286895752,
                0,
                0,
                0.7071068286895752
            ],
            "scale" : [
                8.487683296203613,
                8.487683296203613,
                8.487683296203613
            ],
            "translation" : [
                -1.304970145225525,
                -0.22851692140102386,
                -0.1914851814508438
            ]
        }
    ],
    "animations" : [
        {
            "channels" : [
                {
                    "sampler" : 0,
                    "target" : {
                        "node" : 2,
                        "path" : "rotation"
                    }
                }
            ],
            "name" : "path110Action",
            "samplers" : [
                {
                    "input" : 12,
                    "interpolation" : "LINEAR",
                    "output" : 13
                }
            ]
        },
        {
            "channels" : [
                {
                    "sampler" : 0,
                    "target" : {
                        "node" : 3,
                        "path" : "rotation"
                    }
                }
            ],
            "name" : "path112Action",
            "samplers" : [
                {
                    "input" : 12,
                    "interpolation" : "LINEAR",
                    "output" : 14
                }
            ]
        },
        {
            "channels" : [
                {
                    "sampler" : 0,
                    "target" : {
                        "node" : 4,
                        "path" : "rotation"
                    }
                }
            ],
            "name" : "path114Action",
            "samplers" : [
                {
                    "input" : 12,
                    "interpolation" : "LINEAR",
                    "output" : 15
                }
            ]
        }
    ],
    "materials" : [
        {
            "doubleSided" : true,
            "name" : "SVGMat.001",
            "pbrMetallicRoughness" : {}
        },
        {
            "doubleSided" : true,
            "name" : "SVGMat.002",
            "pbrMetallicRoughness" : {}
        },
        {
            "doubleSided" : true,
            "name" : "SVGMat.003",
            "pbrMetallicRoughness" : {}
        }
    ],
    "meshes" : [
        {
            "name" : "path110",
            "primitives" : [
                {
                    "attributes" : {
                        "POSITION" : 0,
                        "NORMAL" : 1,
                        "TEXCOORD_0" : 2
                    },
                    "indices" : 3,
                    "material" : 0
                }
            ]
        },
        {
            "name" : "path112",
            "primitives" : [
                {
                    "attributes" : {
                        "POSITION" : 4,
                        "NORMAL" : 5,
                        "TEXCOORD_0" : 6
                    },
                    "indices" : 7,
                    "material" : 1
                }
            ]
        },
        {
            "name" : "path114",
            "primitives" : [
                {
                    "attributes" : {
                        "POSITION" : 8,
                        "NORMAL" : 9,
                        "TEXCOORD_0" : 10
                    },
                    "indices" : 11,
                    "material" : 2
                }
            ]
        }
    ],
    "accessors" : [
        {
            "bufferView" : 0,
            "componentType" : 5126,
            "count" : 1038,
            "max" : [
                0.03738539293408394,
                0,
                0.02490445040166378
            ],
            "min" : [
                -0.029152024537324905,
                0,
                -0.0390525758266449
            ],
            "type" : "VEC3"
        },
        {
            "bufferView" : 1,
            "componentType" : 5126,
            "count" : 1038,
            "type" : "VEC3"
        },
        {
            "bufferView" : 2,
            "componentType" : 5126,
            "count" : 1038,
            "type" : "VEC2"
        },
        {
            "bufferView" : 3,
            "componentType" : 5123,
            "count" : 3216,
            "type" : "SCALAR"
        },
        {
            "bufferView" : 4,
            "componentType" : 5126,
            "count" : 100,
            "max" : [
                0.041035182774066925,
                0,
                0.04027092456817627
            ],
            "min" : [
                -0.04103557765483856,
                0,
                -0.0402713418006897
            ],
            "type" : "VEC3"
        },
        {
            "bufferView" : 5,
            "componentType" : 5126,
            "count" : 100,
            "type" : "VEC3"
        },
        {
            "bufferView" : 6,
            "componentType" : 5126,
            "count" : 100,
            "type" : "VEC2"
        },
        {
            "bufferView" : 7,
            "componentType" : 5123,
            "count" : 288,
            "type" : "SCALAR"
        },
        {
            "bufferView" : 8,
            "componentType" : 5126,
            "count" : 876,
            "max" : [
                0.062042225152254105,
                0,
                0.06109926104545593
            ],
            "min" : [
                -0.06113171949982643,
                0,
                -0.05978192389011383
            ],
            "type" : "VEC3"
        },
        {
            "bufferView" : 9,
            "componentType" : 5126,
            "count" : 876,
            "type" : "VEC3"
        },
        {
            "bufferView" : 10,
            "componentType" : 5126,
            "count" : 876,
            "type" : "VEC2"
        },
        {
            "bufferView" : 11,
            "componentType" : 5123,
            "count" : 2610,
            "type" : "SCALAR"
        },
        {
            "bufferView" : 12,
            "componentType" : 5126,
            "count" : 121,
            "max" : [
                5.041666666666667
            ],
            "min" : [
                0.041666666666666664
            ],
            "type" : "SCALAR"
        },
        {
            "bufferView" : 13,
            "componentType" : 5126,
            "count" : 121,
            "type" : "VEC4"
        },
        {
            "bufferView" : 14,
            "componentType" : 5126,
            "count" : 121,
            "type" : "VEC4"
        },
        {
            "bufferView" : 15,
            "componentType" : 5126,
            "count" : 121,
            "type" : "VEC4"
        }
    ],
    "bufferViews" : [
        {
            "buffer" : 0,
            "byteLength" : 12456,
            "byteOffset" : 0
        },
        {
            "buffer" : 0,
            "byteLength" : 12456,
            "byteOffset" : 12456
        },
        {
            "buffer" : 0,
            "byteLength" : 8304,
            "byteOffset" : 24912
        },
        {
            "buffer" : 0,
            "byteLength" : 6432,
            "byteOffset" : 33216
        },
        {
            "buffer" : 0,
            "byteLength" : 1200,
            "byteOffset" : 39648
        },
        {
            "buffer" : 0,
            "byteLength" : 1200,
            "byteOffset" : 40848
        },
        {
            "buffer" : 0,
            "byteLength" : 800,
            "byteOffset" : 42048
        },
        {
            "buffer" : 0,
            "byteLength" : 576,
            "byteOffset" : 42848
        },
        {
            "buffer" : 0,
            "byteLength" : 10512,
            "byteOffset" : 43424
        },
        {
            "buffer" : 0,
            "byteLength" : 10512,
            "byteOffset" : 53936
        },
        {
            "buffer" : 0,
            "byteLength" : 7008,
            "byteOffset" : 64448
        },
        {
            "buffer" : 0,
            "byteLength" : 5220,
            "byteOffset" : 71456
        },
        {
            "buffer" : 0,
            "byteLength" : 484,
            "byteOffset" : 76676
        },
        {
            "buffer" : 0,
            "byteLength" : 1936,
            "byteOffset" : 77160
        },
        {
            "buffer" : 0,
            "byteLength" : 1936,
            "byteOffset" : 79096
        },
        {
            "buffer" : 0,
            "byteLength" : 1936,
            "byteOffset" : 81032
        }
    ],
    "buffers" : [
        {
            "byteLength" : 82968,
            "uri" : "data:application/octet-stream;base64,"
        }
    ]
}
