<?xml version="1.0" encoding="UTF-8" standalone="no"?>
<svg
   xmlns:dc="http://purl.org/dc/elements/1.1/"
   xmlns:cc="http://creativecommons.org/ns#"
   xmlns:rdf="http://www.w3.org/1999/02/22-rdf-syntax-ns#"
   xmlns:svg="http://www.w3.org/2000/svg"
   xmlns="http://www.w3.org/2000/svg"
   xmlns:sodipodi="http://sodipodi.sourceforge.net/DTD/sodipodi-0.dtd"
   xmlns:inkscape="http://www.inkscape.org/namespaces/inkscape"
   width="210mm"
   height="297mm"
   viewBox="0 0 210 297"
   version="1.1"
   id="svg8"
   inkscape:version="1.0.1 (3bc2e813f5, 2020-09-07)"
   sodipodi:docname="testLogo.svg">
  <defs
     id="defs2" />
  <sodipodi:namedview
     id="base"
     pagecolor="#ffffff"
     bordercolor="#666666"
     borderopacity="1.0"
     inkscape:pageopacity="0.0"
     inkscape:pageshadow="2"
     inkscape:zoom="0.35"
     inkscape:cx="400"
     inkscape:cy="560"
     inkscape:document-units="mm"
     inkscape:current-layer="layer1-9"
     inkscape:document-rotation="0"
     showgrid="false"
     inkscape:window-width="1920"
     inkscape:window-height="1017"
     inkscape:window-x="1912"
     inkscape:window-y="-8"
     inkscape:window-maximized="1" />
  <metadata
     id="metadata5">
    <rdf:RDF>
      <cc:Work
         rdf:about="">
        <dc:format>image/svg+xml</dc:format>
        <dc:type
           rdf:resource="http://purl.org/dc/dcmitype/StillImage" />
        <dc:title></dc:title>
      </cc:Work>
    </rdf:RDF>
  </metadata>
  <g
     inkscape:label="Layer 1"
     inkscape:groupmode="layer"
     id="layer1">
    <g
       inkscape:label="Layer 1"
       id="layer1-9"
       transform="matrix(2.0497794,0,0,1.9918242,-105.24298,-149.25982)">
      <g
         inkscape:label="Layer 1"
         id="layer1-4"
         transform="matrix(0.9211923,0,0,0.93053647,11.361747,11.495207)">
        <path
           d="m 93.921683,159.95557 c 0.0127,-0.34255 0.0367,-0.68368 0.0702,-1.02411 -0.24341,-0.50589 -0.5147,-0.99942 -0.80045,-1.4859 -0.10971,-0.18627 -0.2607,-0.38065 -0.12241,-0.62795 0.0265,-0.048 -0.007,-0.1464 -0.043,-0.20425 -0.13229,-0.21626 -0.20285,-0.45862 -0.32985,-0.67875 -0.22825,-0.39617 -0.46602,-0.78916 -0.64206,-1.2132 -0.0917,-0.22084 -0.18062,-0.45614 -0.35313,-0.62865 -0.33055,-0.33055 -0.54786,-0.73907 -0.8456,-1.09044 -0.14852,-0.17533 -0.21061,-0.37112 -0.19262,-0.59937 0.0127,-0.16474 0.006,-0.32526 -0.0487,-0.49389 -0.0402,-0.12382 -0.21978,-0.31855 -0.10407,-0.36583 0.20179,-0.0818 0.1905,0.18698 0.27411,0.2981 0.0953,0.12629 0.20249,0.20214 0.35913,0.22013 0.13723,-0.30656 0.19014,0.0794 0.32102,0.0229 0.0684,-0.15028 0.0194,-0.29774 -0.0497,-0.45614 -0.0455,-0.10442 -0.22084,-0.25929 -0.0511,-0.32914 0.139,-0.0575 0.14993,0.17463 0.22649,0.27129 0.0713,0.0896 0.0395,0.2674 0.24341,0.26564 -0.0444,-0.20603 -0.18027,-0.36019 -0.20778,-0.55245 -0.009,-0.0639 -0.008,-0.12312 0.06,-0.15205 0.0748,-0.0324 0.10795,0.0212 0.14287,0.0744 0.084,0.12876 0.1083,0.29069 0.23072,0.40075 0.19403,-0.10865 0.21943,-0.24729 0.10513,-0.42157 -0.0324,-0.0497 -0.0575,-0.10759 -0.0695,-0.1651 -0.005,-0.0247 0.0261,-0.0639 0.0512,-0.085 0.0346,-0.03 0.0773,-0.008 0.0952,0.0212 0.0504,0.0818 0.091,0.16969 0.13828,0.25365 0.0727,0.12841 0.16334,0.22931 0.37042,0.20461 -0.0737,-0.20249 -0.14076,-0.38135 -0.2039,-0.56127 -0.0215,-0.0614 -0.0123,-0.11959 0.055,-0.15204 0.0688,-0.0332 0.1217,-0.003 0.15769,0.0515 0.0265,0.0399 0.0381,0.0882 0.0607,0.13088 0.11888,0.22472 0.22507,0.46143 0.51258,0.53481 0.10407,0.0268 0.11854,0.11606 0.14182,0.19544 0.11324,0.38029 0.26317,0.756 0.32456,1.14476 0.0776,0.49354 0.2413,0.95039 0.45931,1.39524 0.0917,0.18803 0.13582,0.40075 0.29175,0.5775 0.0233,-0.0236 0.0399,0.0519 0.0508,0.19967 0.11289,-0.12065 0.56092,0.0699 1.00295,0.0984 -0.68333,-0.0773 -0.71579,-0.26917 -0.9398,-0.44627 0.0607,-0.47166 0.19826,-2.40559 0.16615,-2.8709 -0.0377,-0.5521 -0.0638,-1.1049 -0.0653,-1.65629 -0.002,-0.78282 -1.12783,-2.29341 -1.28305,-4.05659 0.36477,0.10653 1.08479,0.56938 1.76001,1.09184 -0.39934,-0.32702 -1.31939,-1.47143 -3.41277,-1.64006 -0.65264,-0.0526 1.11336,0.0215 2.32974,-0.502 -1.13065,0.40675 -2.94605,0.35418 -3.10338,0.26211 -0.28364,-0.16616 -0.5902,-0.2921 -0.81951,-0.54434 -0.19861,-0.21872 -0.27058,-0.50623 -0.47131,-0.72354 -0.0568,-0.061 -0.031,-0.21096 -0.013,-0.31503 0.037,-0.21273 0.1016,-0.42087 0.14111,-0.63324 0.0212,-0.11254 0.1009,-0.1778 0.18733,-0.20602 0.24306,-0.0797 0.45967,-0.21802 0.71861,-0.26741 0.254,-0.0487 0.52634,-0.1016 0.74118,-0.23036 0.42228,-0.25294 0.86819,-0.18909 1.30069,-0.13723 0.66217,0.0797 1.29858,0.28151 1.92582,0.50306 0.0787,0.0275 0.17074,0.0201 0.25717,0.0275 0.0741,0.006 0.17498,-0.0176 0.21837,0.0205 0.27376,0.24095 0.60607,0.14958 0.91828,0.16827 0.17921,0.0106 -0.33549,-0.39475 -0.26564,-0.56197 0.0822,-0.19685 -0.0575,-0.7493 0,-1.01882 0.13159,-0.61701 -0.0885,-0.17392 -0.29069,-0.84067 -0.24341,-0.80187 -0.74612,-0.42263 -0.58032,-0.73625 0.20356,-0.38594 0.69709,-0.75565 1.0481,-1.06116 -0.47131,-0.0469 -0.99871,0.18063 -1.4037,0.0275 -0.13299,-0.0501 -0.4953,-0.16227 -0.77681,-0.20919 -0.17675,-0.0293 -0.0596,-0.10584 0,-0.21837 0.0335,-0.0631 -0.17604,0.22225 -0.24765,0.21837 -0.49389,-0.0257 -0.99978,0.0459 -1.4598,0.20919 0.48895,-0.46108 1.11443,-0.75635 2.02318,-0.70802 0.8128,0.0512 1.45168,0.26282 1.9244,0.62794 0.01,-0.009 0.0194,-0.0177 0.0289,-0.0261 0.14253,-0.13017 0.75742,-0.6858 0.8756,-0.85972 0.18803,-0.27693 0.24659,-0.77646 0.4251,-0.8329 0.38029,-0.1196 1.55328,0.70132 1.90182,0.8329 0.15134,0.0571 0.254,0.24413 0.662517,0.46073 0.21343,0.11324 0.15698,0.14041 0.2226,0.29422 l -0.14958,0.19685 c 0.009,0.0194 0.0173,0.0395 0.0233,0.0596 0.0138,0.0452 0.0279,0.0885 0.0427,0.13017 l -0.335487,0.44168 c 0.355247,0.16616 0.647347,0.27728 0.714377,0.23389 0,0 -0.21978,-0.23142 -0.37889,-0.67557 l 0.17392,-0.22895 c -0.0134,-0.0173 -0.0254,-0.0356 -0.036,-0.0529 -0.0247,-0.0406 -0.0416,-0.0751 -0.0543,-0.10477 l 8.31568,-10.94564 0.0832,0.055 c 0,0.0363 0.001,0.0723 0.003,0.1083 l -8.31181,10.94001 c 0.0332,0.0427 0.0737,0.0815 0.11818,0.0984 0.24589,0.0938 0.41945,0.28787 0.66181,0.42404 -0.11077,0.0515 -0.21308,0.0991 -0.32032,0.14888 -0.0148,0.10548 0.0921,0.11535 0.14993,0.16862 0.22754,0.20814 0.16157,0.45614 -0.14852,0.53199 -0.0766,0.0187 -0.13088,0.042 -0.10054,0.1016 0.10301,0.19967 0.0762,0.42545 0.15381,0.62865 0.0751,0.19579 0.11536,0.37077 -0.0684,0.56162 -0.127,0.13265 -0.0713,0.3489 -0.0233,0.52212 0.0628,0.2293 0.0328,0.40357 -0.21766,0.49671 -0.11995,0.0444 -0.15593,0.94756 -0.24095,1.01176 -0.10583,0.0797 -0.25259,0.067 -0.055,0.0702 0.12524,0.002 0.74154,0.004 0.87101,0.006 4.10069,0.0667 10.25419,0.1644 14.22082,0.22437 0.15558,0.002 0.47272,0.0113 0.47272,0.0113 0,0 0.0501,-0.84314 -0.024,-1.05728 -0.0706,-0.20461 -0.25364,-0.32173 -0.37077,-0.49 -0.242,-0.3489 -0.47519,-0.7045 -0.76976,-1.01636 -0.10583,-0.11253 -0.1203,-0.248 -0.14393,-0.39511 -0.0868,-0.53834 0.0699,-1.04351 0.18027,-1.55716 0.0275,-0.12876 0.0413,-0.2607 0.0519,-0.39193 0.0155,-0.19333 -0.14005,-0.42828 0.15804,-0.55069 0.0434,-0.0177 0.0204,-0.085 0.006,-0.13229 -0.37852,-1.2386 -0.83572,-2.4444 -1.73178,-3.43429 -0.60502,-0.66852 -1.21567,-1.33386 -1.87502,-1.95545 -0.64135,-0.60466 -1.24706,-1.23366 -1.71238,-1.98684 -0.4512,-0.73061 -0.7754,-1.48555 -0.85972,-2.34245 -0.0208,-0.21378 -0.0589,-0.4251 -0.0706,-0.63676 l 0.0536,-0.0706 -0.0568,-0.0377 c -7.9e-4,-0.11924 0.01,-0.23883 0.0381,-0.35984 l 0.0374,7.2e-4 c 0.0124,0 0.0247,3.4e-4 0.037,3.4e-4 0.0208,0.0423 0.0614,0.0861 0.0589,0.12736 -0.0416,0.63535 0.14464,1.23578 0.33832,1.82527 0.35031,1.06468 1.03187,1.93004 1.83021,2.72309 1.03011,1.02341 2.05528,2.05246 2.99826,3.15277 0.46355,0.54081 0.78352,1.16029 1.00471,1.83304 0.19508,0.59408 0.44803,1.16875 0.64276,1.76424 0.19473,0.59584 0.28575,1.21814 0.51294,1.80446 0.0653,0.16863 0.12488,0.33972 0.19367,0.50694 0.0325,0.0787 0.0801,0.15522 0.042,0.24059 -0.16263,0.36054 0.012,0.68933 0.12912,1.0086 0.11818,0.32208 0.33443,1.41534 0.33443,1.41534 0,0 1.34479,0.008 1.49896,-0.0109 -0.0106,-0.12947 -0.0363,-0.36654 -0.0762,-0.49918 0.49494,0.0896 0.95885,0.37676 1.40546,0.61066 -0.43603,0.24376 -0.89711,0.53481 -1.40546,0.6103 0.0434,-0.12524 0.0688,-0.35877 0.0776,-0.48824 -0.20073,-0.0233 -1.45309,-0.0236 -1.45309,-0.0236 0,0 0.0183,0.14816 0.0162,0.19261 -0.009,0.18698 -0.0949,0.27835 -0.0949,0.27835 0,0 0.19967,0.0303 0.25858,0.0441 0.35737,0.0861 0.40817,0.20214 0.23319,0.51576 -0.0173,0.031 -0.0459,0.0649 -0.0437,0.096 0.0272,0.45755 -0.33726,0.79516 -0.40041,1.22625 -0.0159,0.10795 -0.12664,0.19085 -0.22895,0.2219 -0.14005,0.0423 -0.30903,0.0166 -0.30903,0.0166 0,0 -0.0826,0.42615 -0.0797,0.58137 0.002,0.1203 -0.01,0.14288 -0.0183,0.35596 -0.0427,0.20461 -0.19579,0.67698 -0.35807,1.03822 -0.26141,0.5835 -0.28293,0.73978 -0.44556,1.1042 -0.24941,0.55844 -0.44062,1.14546 -0.60784,1.73319 -0.20143,0.70838 -0.47448,1.39347 -0.83855,2.02636 -0.35137,0.6103 -0.65934,1.25695 -1.17193,1.77623 -0.80433,0.81457 -1.59738,1.5868 -2.36714,2.48568 -0.12382,0.14464 -0.28928,0.3249 -0.35948,0.44979 -0.16439,0.29175 -0.33972,0.66251 -0.53057,1.12465 -0.0794,0.19191 -0.11678,0.44486 -0.13371,0.61736 -0.0374,0.37783 -0.22613,0.70979 -0.31115,1.07174 -0.003,0.013 -0.009,0.0226 -0.018,0.0296 l 0.018,0.0229 -0.1397,0.0928 -7.16597,-9.10201 c 0.002,-0.0861 0.005,-0.17463 0.009,-0.26459 l -5.153377,-6.78321 c -0.0367,0.0423 -0.078,0.0811 -0.12241,0.11571 l 5.266967,6.93209 c -0.01,0.38029 -0.002,0.71825 0.0215,0.95461 0.031,0.31045 0.0935,1.90924 0.0857,2.22109 -0.62548,0.23601 -0.58174,0.24201 -1.42064,0.28293 0.65123,0.0582 1.23155,-0.0413 1.42064,-0.10125 0.18979,-0.06 0.50341,0.12418 0.51329,0.26388 0.0293,0.40781 0.0582,0.81562 0.0903,1.22343 0.0124,0.15452 -0.007,0.31221 0.0511,0.46391 0.0318,0.0822 0.0268,0.21413 -0.0353,0.23389 -0.24518,0.0783 -0.14429,0.2353 -0.11889,0.37676 0.14923,0.82762 0.30833,1.65312 0.44415,2.4825 0.0183,0.1136 0.0829,1.03082 0.49248,1.4852 -0.36266,-0.0272 -0.43004,-0.042 -0.83362,-0.15452 0.46038,0.26705 0.56692,0.42263 0.83362,0.47413 0.34078,0.28046 0.26564,0.36054 0.76235,0.59443 -0.5394,0.0459 -1.08514,0.0692 -1.63618,0.0692 -8.289577,0 -15.357127,-5.27226 -18.030117,-12.64391 1.95968,4.27144 5.31777,7.76958 9.4869,9.90741 z m 15.024097,0.67945 c -0.0124,-0.17674 0.007,-0.35489 0.0325,-0.53163 0.0794,-0.55069 0.33973,-1.04528 0.53058,-1.5614 0.0374,-0.10089 0.0931,-0.19297 0.13018,-0.29563 0.15381,-0.42404 0.45191,-0.75988 0.73237,-1.10984 0.32596,-0.4064 0.53833,-0.68968 1.02728,-1.17545 0.0564,-0.0917 0.13653,-0.17216 0.21696,-0.24695 0.52705,-0.48965 0.97614,-1.04492 1.41605,-1.60549 0.34961,-0.44626 0.56409,-0.96308 0.78917,-1.47602 0.248,-0.56515 0.3944,-1.16099 0.60995,-1.73531 0.10689,-0.2854 0.0878,-0.59761 0.03,-0.88724 -0.12736,-0.63641 -0.23037,-1.25871 0.0399,-1.89124 0.12594,-0.29457 0.24024,-0.60643 0.19861,-0.94051 -0.0152,-0.12453 0.0628,-0.19932 0.14676,-0.27446 0.091,-0.0815 0.17956,-0.16616 0.26599,-0.25259 0.0586,-0.0582 0.0815,-0.28963 0.0815,-0.28963 0,0 0.0272,-0.0204 -0.2226,-0.12276 -0.39687,0.1016 -1.14159,0.25223 -1.55187,0.25012 -0.12347,-8e-4 -0.248,0.0113 -0.37112,0.0254 -0.32103,0.0367 -0.64135,0.0836 -0.96591,0.0808 -0.24941,-0.002 -0.48189,0.0155 -0.71367,0.14499 -0.18732,0.10477 -0.41804,0.15169 -0.64734,0.14499 -0.75777,-0.0226 -1.51765,0.003 -2.2733,-0.0783 -0.18874,-0.0204 -0.37113,0.0124 -0.55386,0.0526 -0.72849,0.16016 -1.46262,0.26353 -2.21298,0.22613 -0.7814,-0.0388 -1.56563,0.006 -2.34209,-0.14252 -0.0931,-0.084 0.37747,-0.9585 0.76235,-1.2566 -0.34325,0.17075 -1.17687,1.45733 -1.35184,2.07257 -0.0892,0.31397 -0.19015,1.5046 -1.53917,1.72967 l -0.0159,0.002 c 0.69955,-0.10971 0.68192,-0.15134 0.97402,-0.31785 -0.20779,0.51858 -0.32738,1.51942 -0.36513,2.38407 l 7.14269,9.07768 c 0.005,0.0656 0.0134,0.13088 0.0282,0.19614 0.0529,-0.004 0.0882,-0.007 0.10795,-0.0229 z m -16.978487,-6.40856 c 0.37854,0.72849 0.76447,1.45345 1.14794,2.17946 0.0169,0.0318 0.03,0.0667 0.0533,0.0935 0.0261,0.0296 0.066,0.0318 0.0963,0.005 0.0152,-0.013 0.0275,-0.0427 0.0229,-0.0607 -0.008,-0.0342 -0.0303,-0.0653 -0.0469,-0.0977 -0.37429,-0.74365 -0.74789,-1.48766 -1.12324,-2.23097 -0.0466,-0.0931 -0.0815,-0.19826 -0.20179,-0.23706 -0.0808,0.13794 -10e-4,0.2473 0.0515,0.34854 z m 0.29457,-0.16545 c 0.35031,0.70061 0.67734,1.41252 1.05587,2.10008 0.0169,0.0303 0.0385,0.0582 0.0575,0.0871 0.254,-0.24271 0.23601,-0.23424 0.0921,-0.52564 -0.2346,-0.47554 -0.47343,-0.94791 -0.72849,-1.41287 -0.10477,-0.19085 -0.20743,-0.38206 -0.38417,-0.55492 -0.10372,0.10689 -0.15487,0.18168 -0.0928,0.30621 z m 0.56022,0.0628 c 0.26281,0.49847 0.51117,1.00436 0.76693,1.50671 0.0293,0.0575 0.0504,0.15981 0.14923,0.0921 0.0526,-0.036 0.0907,-0.10054 0.0413,-0.18415 -0.35842,-0.60643 -0.66957,-1.23719 -1.01635,-1.8602 -0.0321,0.15875 -0.0176,0.30092 0.0589,0.44556 z m 1.13453,0.77011 c -0.14852,-0.26176 -0.27975,-0.53552 -0.38594,-0.81562 -0.17357,-0.45932 -0.54187,-0.78387 -0.83185,-1.24037 -0.0402,0.20532 -0.0162,0.34855 0.0416,0.4632 0.35736,0.70626 0.72884,1.40582 1.11795,2.15018 0.16616,-0.22613 0.16016,-0.37783 0.0582,-0.55739 z m -0.48154,-1.48802 c 0.17709,0.44627 0.37253,0.88583 0.56338,1.32715 0.0332,0.0773 0.073,0.15276 0.11959,0.22296 0.024,0.0363 0.0639,0.0776 0.12136,0.0416 0.043,-0.0265 0.09,-0.0653 0.078,-0.11254 -0.0261,-0.10301 -0.0635,-0.20425 -0.10654,-0.30197 -0.14005,-0.31892 -0.29704,-0.63148 -0.42404,-0.95497 -0.10795,-0.27482 -0.27093,-0.50377 -0.5401,-0.74683 0.008,0.24024 0.12841,0.37323 0.18838,0.52458 z m 22.307547,-9.57156 c -0.0762,0.001 -0.30339,0.005 -0.45121,0.003 -3.98956,-0.0624 -11.15624,-0.12912 -15.14581,-0.18415 -0.418037,-0.006 -0.0286,-0.006 0,0.0706 0.0413,0.10936 0.11995,0.19332 0.29528,0.22719 0.072,0.0141 0.49777,0.0116 0.57185,0.01 0.26317,-0.007 0.514,-0.0783 0.76835,-0.13547 0.88301,-0.19932 1.74378,-0.15558 2.57775,0.21978 0.53199,0.23918 1.09008,0.37924 1.68346,0.3997 0.4452,0.0152 0.89605,0.0508 1.3208,0.18909 0.48401,0.15769 0.9525,0.14428 1.42134,-0.0293 0.91792,-0.33937 1.86055,-0.21484 2.80035,-0.14605 0.0363,0.003 0.0727,0.0166 0.1076,0.0289 0.47236,0.16968 0.96272,0.2099 1.46261,0.19614 0.2346,-0.007 0.4759,-0.0293 0.70238,0.0504 0.45226,0.1591 0.85055,0.0392 1.22696,-0.20532 0.12347,-0.0801 0.22931,-0.19332 0.3616,-0.25153 0.0847,-0.037 0.27552,-0.0413 0.27552,-0.0413 0,0 0.0106,-0.27164 0.0173,-0.35771 0.001,-0.0169 0.002,-0.0314 0.004,-0.0441 0.0162,-2.7e-4 0.0257,-2.7e-4 0.0257,-2.7e-4 0,0 -0.0109,-0.1524 -0.0257,2.7e-4 z M 99.856823,143.6583 h 0.0251 c 0.0145,-0.0148 0.003,-0.013 -0.0251,0 h -1.75472 c -0.12488,0.13547 -0.38206,0.36301 -0.62971,0.50447 0.22437,0.0208 1.29646,-0.0568 1.4926,-0.0751 0.14253,-0.013 0.74648,-0.36442 0.89183,-0.42933 z m -3.2826,-0.0762 3.25367,-4.28272 c -0.0501,-0.0236 -0.1016,-0.0483 -0.15416,-0.0737 l 0.423677,-0.55774 c -0.234947,-0.4953 -1.468607,-0.81633 -1.468607,-0.81633 0,0 0.34925,0.4258 -1.16876,-0.13547 0.33867,0.14605 0.37642,0.48084 0.8188,0.75671 0.19121,0.11924 0.83891,0.4826 1.39489,0.75283 l -3.23463,4.25767 c 0.0483,0.0286 0.0935,0.0617 0.13512,0.0988 z"
           style="fill:#1e2f4c;fill-opacity:1;fill-rule:evenodd;stroke:none;stroke-width:0.352777"
           id="path110" />
        <path
           d="m 102.05356,121.89931 c 11.99409,0 21.73147,9.73773 21.73147,21.73182 0,11.99409 -9.73738,21.73147 -21.73147,21.73147 -11.994087,0 -21.731807,-9.73738 -21.731807,-21.73147 0,-11.99409 9.73772,-21.73182 21.731807,-21.73182 z m 0,1.12607 c 11.3725,0 20.60575,9.2329 20.60575,20.60575 0,11.3725 -9.23325,20.60575 -20.60575,20.60575 -11.372847,0 -20.605747,-9.23325 -20.605747,-20.60575 0,-11.37285 9.2329,-20.60575 20.605747,-20.60575 z"
           style="fill:#1e2f4c;fill-opacity:1;fill-rule:evenodd;stroke:none;stroke-width:0.352777"
           id="path112" />
        <path
           d="m 87.852853,159.56681 0.10054,0.0889 c 3.5754,3.15454 7.98019,4.97911 12.738797,5.27685 l 0.13441,0.008 v 1.45133 c 0,0.085 0.0229,0.17251 0.0667,0.25259 0.0388,0.0723 0.0755,0.15804 0.11219,0.26246 0.1591,0.4565 0.25752,1.18075 0.25752,1.89089 0,0.21696 -0.0314,0.42439 -0.0956,0.635 -0.0441,0.15275 -0.10089,0.29175 -0.15522,0.4191 l -0.0342,0.0801 c -0.12523,0.29245 -0.25471,0.59478 -0.24342,0.95779 10e-4,0.0564 0.003,0.13441 0.005,0.22966 0.0106,0.54045 0.0321,1.66582 0.18133,2.69028 0.20779,1.42664 0.58879,2.14983 1.13312,2.14983 0.49142,0 0.83715,-0.55598 1.05692,-1.69968 0.0356,-0.18239 0.067,-0.37606 0.0935,-0.57538 0.13265,-0.98602 0.15311,-2.04647 0.16299,-2.55623 l 2.6e-4,-0.0346 c 0.002,-0.084 0.004,-0.1531 0.005,-0.20426 0.009,-0.31926 -0.0882,-0.58526 -0.18062,-0.80962 l -0.0621,-0.1457 c -0.14111,-0.3302 -0.28611,-0.66816 -0.28611,-1.1363 0,-0.87982 0.14852,-1.74554 0.36936,-2.15371 0.0356,-0.0663 0.0568,-0.13299 0.0639,-0.20355 l 0.003,-0.0455 2.7e-4,-1.4545 0.1344,-0.008 c 4.75756,-0.29775 9.16235,-2.12231 12.7374,-5.2765 l 0.10125,-0.0889 1.02587,1.02588 c 0.0607,0.0603 0.13723,0.10513 0.2279,0.13229 0.0783,0.0233 0.16757,0.0593 0.26529,0.10654 0.0741,0.0353 0.15169,0.0773 0.23071,0.12559 0.40005,0.23601 0.86995,0.61172 1.28729,1.02905 0.30057,0.30092 0.44027,0.60784 0.56797,0.92146 l 0.0328,0.0829 c 0.0903,0.22648 0.18274,0.4572 0.33479,0.65828 0.0582,0.0773 0.11077,0.13582 0.16863,0.18909 0.0416,0.0392 0.097,0.0921 0.16439,0.15734 0.39017,0.37571 1.20191,1.15782 2.03271,1.77659 1.15534,0.86113 1.92793,1.11337 2.32092,0.71931 0.34572,-0.35913 0.19438,-0.99377 -0.45297,-1.9498 -0.10724,-0.15699 -0.22225,-0.31644 -0.34184,-0.47308 -0.25858,-0.33796 -0.56338,-0.70202 -0.90558,-1.08161 -0.31961,-0.3549 -0.59831,-0.64523 -0.78352,-0.83785 -0.0699,-0.073 -0.127,-0.13264 -0.16792,-0.17604 -0.24765,-0.26352 -0.53975,-0.38064 -0.84843,-0.50411 -0.33126,-0.133 -0.67275,-0.26988 -1.00401,-0.60043 -0.0476,-0.048 -0.0949,-0.096 -0.14252,-0.14711 -0.55739,-0.58596 -0.9973,-1.22908 -1.11901,-1.63724 -0.0261,-0.0882 -0.0716,-0.16651 -0.13194,-0.22648 l -1.02588,-1.02624 0.0889,-0.10054 c 3.15454,-3.5754 4.97946,-7.98018 5.27685,-12.7388 l 0.008,-0.13406 h 1.45027 c 0.0871,0 0.17251,-0.0226 0.254,-0.0674 0.0691,-0.0374 0.15452,-0.0737 0.26212,-0.11183 0.45684,-0.15875 1.18145,-0.25717 1.89088,-0.25717 0.42793,0 0.74295,0.11853 1.0534,0.25047 l 0.0808,0.0339 c 0.29387,0.12629 0.57079,0.24483 0.91264,0.24483 l 0.26811,-0.006 c 0.47378,-0.009 1.35502,-0.0254 2.24613,-0.12313 0.13512,-0.0155 0.29422,-0.0346 0.45085,-0.0579 1.42664,-0.20778 2.14948,-0.58878 2.14948,-1.13277 0,-0.49212 -0.55563,-0.83784 -1.69933,-1.05762 -0.18697,-0.036 -0.38065,-0.0674 -0.57503,-0.0935 -0.98601,-0.13265 -2.04717,-0.15311 -2.55693,-0.16299 l -0.23813,-0.005 c -0.37288,-0.0109 -0.66498,0.11818 -0.95744,0.24342 -0.32737,0.14005 -0.66569,0.28469 -1.13453,0.28469 -0.87912,0 -1.74484,-0.14781 -2.153,-0.3683 -0.0825,-0.0452 -0.16687,-0.0677 -0.25294,-0.0677 h -1.45133 l -0.008,-0.13441 c -0.29757,-4.7579 -2.12214,-9.16269 -5.27632,-12.73774 l -0.0889,-0.10089 1.02658,-1.02658 c 0.0603,-0.061 0.10477,-0.13794 0.13194,-0.22719 0.0233,-0.079 0.0593,-0.16828 0.10583,-0.26494 0.2092,-0.43321 0.65158,-1.01529 1.155,-1.51835 0.30127,-0.30092 0.60748,-0.44027 0.9218,-0.56798 l 0.0797,-0.0321 c 0.29598,-0.11782 0.60184,-0.23989 0.85126,-0.50553 0.0388,-0.042 0.0949,-0.10019 0.16368,-0.17109 0.36724,-0.38206 1.04881,-1.0915 1.63936,-1.85385 0.0452,-0.0586 0.0878,-0.11395 0.13018,-0.17039 0.86113,-1.15606 1.10313,-1.93675 0.71931,-2.32163 -0.35877,-0.34537 -0.99342,-0.19403 -1.95016,0.45367 -0.15769,0.10689 -0.31714,0.22189 -0.47272,0.34113 -0.78457,0.59796 -1.5494,1.33315 -1.91699,1.68628 -0.0744,0.0716 -0.13441,0.12947 -0.17886,0.17075 -0.26388,0.24835 -0.38629,0.5535 -0.50447,0.84878 -0.12629,0.31503 -0.26882,0.67204 -0.60008,1.00401 -0.62335,0.6223 -1.3402,1.12924 -1.78399,1.26153 -0.0875,0.025 -0.16616,0.0709 -0.22719,0.13194 l -1.02588,1.02552 -0.10089,-0.0889 c -3.57505,-3.15383 -7.97984,-4.97875 -12.7381,-5.2765 l -0.13441,-0.008 v -1.45125 c 0,-0.0857 -0.0226,-0.1711 -0.0674,-0.25365 -0.0388,-0.0723 -0.0769,-0.16051 -0.11219,-0.26247 -0.15839,-0.45614 -0.25717,-1.18074 -0.25717,-1.89053 0,-0.42792 0.11889,-0.7426 0.25047,-1.05375 l 0.0346,-0.0808 c 0.13124,-0.30656 0.25471,-0.59513 0.24377,-0.95708 l -0.005,-0.23002 c -0.0102,-0.54077 -0.0317,-1.66613 -0.18096,-2.69025 -0.20779,-1.42628 -0.58914,-2.14983 -1.13348,-2.14983 -0.49142,0 -0.83714,0.55598 -1.05727,1.69969 -0.036,0.18838 -0.0674,0.3817 -0.0928,0.57503 -0.13229,0.98036 -0.15311,2.04293 -0.16299,2.5534 -0.002,0.10301 -0.004,0.18415 -0.006,0.24236 -0.0113,0.3623 0.11254,0.65123 0.24342,0.95709 0.14041,0.32773 0.28504,0.66604 0.28504,1.13418 0,0.88053 -0.14887,1.74589 -0.36971,2.15441 -0.0444,0.0811 -0.0667,0.16616 -0.0667,0.25224 v 1.45097 l -0.1344,0.008 c -4.758267,0.29739 -9.163407,2.12231 -12.738807,5.27649 l -0.10054,0.0889 -1.02658,-1.02587 c -0.0455,-0.0459 -0.1009,-0.0825 -0.16334,-0.10936 -0.0198,-0.009 -0.0402,-0.0155 -0.0677,-0.0247 -0.0734,-0.0215 -0.16263,-0.0568 -0.2607,-0.10407 -0.43392,-0.20991 -1.01494,-0.65264 -1.51871,-1.1557 -0.30304,-0.30339 -0.44168,-0.60925 -0.56762,-0.92181 l -0.0339,-0.0836 c -0.12386,-0.30871 -0.24028,-0.5994 -0.50345,-0.84705 l -0.1711,-0.16334 c -0.38946,-0.3743 -1.19909,-1.15323 -2.026,-1.77024 -1.15535,-0.86148 -1.93604,-1.10278 -2.32092,-0.7179 -0.0582,0.0579 -0.10196,0.12488 -0.12983,0.19897 -0.1471,0.37288 0.0494,0.96096 0.58385,1.74942 0.10019,0.14887 0.2152,0.30833 0.34114,0.47308 0.59972,0.7874 1.32609,1.54234 1.67499,1.90534 0.0769,0.0797 0.13934,0.14464 0.18238,0.19015 0.24801,0.26423 0.5394,0.38065 0.84738,0.50447 0.33231,0.133 0.6738,0.26988 1.00506,0.60114 0.6223,0.62265 1.12924,1.33914 1.26153,1.78329 0.0261,0.0882 0.0713,0.16616 0.13159,0.22719 l 1.02658,1.02588 -0.0889,0.10089 c -2.32304,2.63278 -3.92465,5.71535 -4.72687,9.05757 -0.28716,1.19662 -0.47166,2.4264 -0.54998,3.68088 l -0.008,0.13441 h -1.45133 c -0.0847,0 -0.17215,0.0229 -0.25223,0.0663 -0.0762,0.0413 -0.16475,0.079 -0.26388,0.11324 -0.455789,0.1584 -1.180395,0.25647 -1.890536,0.25647 -0.427567,0 -0.742598,-0.11818 -1.053395,-0.25012 l -0.08043,-0.0346 c -0.297039,-0.12735 -0.5969,-0.254 -0.957086,-0.24342 -0.0568,0.002 -0.134408,0.004 -0.229658,0.005 -0.54222,0.01 -1.668286,0.0318 -2.690636,0.18098 -1.426986,0.20743 -2.149828,0.58914 -2.149828,1.13312 0,0.44485 0.482247,0.7814 1.432983,1.00048 0.09842,0.0226 0.181681,0.0399 0.267053,0.0568 0.186619,0.036 0.380647,0.0674 0.574675,0.0928 0.609247,0.0822 1.325033,0.13264 2.188986,0.15487 l 0.355247,0.008 c 0.104775,0.002 0.189795,0.004 0.251531,0.006 l 0.0448,7.9e-4 c 0.341842,0 0.618419,-0.11853 0.911225,-0.24412 0.271639,-0.11641 0.551744,-0.23636 0.907344,-0.2734 0.08043,-0.008 0.154164,-0.0116 0.227189,-0.0116 0.894645,0 1.740959,0.14534 2.155476,0.37077 0.0815,0.043 0.16686,0.0656 0.25117,0.0656 h 1.45133 l 0.008,0.13405 c 0.29739,4.75862 2.12196,9.16341 5.27685,12.73881 l 0.0889,0.10054 -1.02517,1.02517 c -0.061,0.06 -0.10548,0.13688 -0.13335,0.2286 -0.0233,0.078 -0.0593,0.16757 -0.10583,0.26494 -0.0783,0.16298 -0.1905,0.34784 -0.33303,0.55033 -0.22436,0.31821 -0.51681,0.66181 -0.82232,0.96767 -0.30374,0.30339 -0.6096,0.44168 -0.92216,0.56833 l -0.0804,0.0321 c -0.29563,0.11783 -0.60043,0.23989 -0.8502,0.50483 l -0.15663,0.16404 c -0.33197,0.34502 -0.94651,0.98354 -1.50636,1.68345 -0.0893,0.11113 -0.17992,0.22825 -0.27023,0.34925 -0.86219,1.1557 -1.103844,1.93675 -0.71826,2.32128 0.35137,0.35207 0.99554,0.19085 1.94839,-0.45403 0.14958,-0.10054 0.30904,-0.21554 0.47343,-0.34148 0.79234,-0.60467 1.55963,-1.34268 1.92829,-1.69757 0.0691,-0.0663 0.12594,-0.12065 0.16721,-0.15946 0.26388,-0.24765 0.38065,-0.53904 0.50412,-0.84807 0.13335,-0.33232 0.27023,-0.67345 0.60149,-1.00436 0.62124,-0.6223 1.33808,-1.12959 1.78364,-1.26189 0.0882,-0.0257 0.16616,-0.0716 0.22613,-0.13158 z m 14.201067,16.67969 c -0.71861,0 -1.18216,-0.78352 -1.41676,-2.39537 -0.15205,-1.04175 -0.17357,-2.17946 -0.1838,-2.72591 -0.002,-0.0938 -0.003,-0.17039 -0.005,-0.22613 -0.0134,-0.42616 0.12877,-0.75812 0.26635,-1.07915 l 0.0339,-0.0797 c 0.0508,-0.11924 0.10336,-0.24871 0.14429,-0.38876 0.0564,-0.18485 0.0832,-0.36512 0.0832,-0.55315 0,-0.68016 -0.0921,-1.36843 -0.24095,-1.79635 -0.0318,-0.0896 -0.0624,-0.16228 -0.0938,-0.22084 -0.066,-0.121 -0.10125,-0.25611 -0.10125,-0.38876 v -1.18286 c -4.726557,-0.3242 -9.103827,-2.13677 -12.675347,-5.25004 l -0.83573,0.83609 c -0.0938,0.0938 -0.21414,0.16439 -0.34749,0.20355 -0.39758,0.11818 -1.08091,0.60748 -1.66264,1.18992 -0.28963,0.28928 -0.40992,0.58878 -0.53692,0.90593 -0.13088,0.32667 -0.26529,0.66146 -0.57468,0.95285 -0.0413,0.0385 -0.097,0.0917 -0.16475,0.15734 -0.37288,0.35843 -1.14829,1.1042 -1.95333,1.71838 -0.16898,0.12947 -0.33302,0.24765 -0.48754,0.35102 -1.10701,0.75 -1.85561,0.87489 -2.31069,0.41945 -0.509059,-0.50765 -0.282928,-1.38924 0.69109,-2.69487 0.0924,-0.12347 0.18521,-0.24342 0.27623,-0.35736 0.56797,-0.70979 1.1885,-1.35432 1.52153,-1.70074 l 0.15663,-0.16369 c 0.29316,-0.31115 0.64311,-0.45121 0.95215,-0.57468 l 0.0801,-0.0318 c 0.28363,-0.11465 0.56091,-0.23989 0.8262,-0.50518 0.29493,-0.29457 0.57538,-0.62512 0.79093,-0.93027 0.13335,-0.18944 0.23742,-0.36089 0.30939,-0.50941 0.0399,-0.0836 0.0702,-0.15875 0.0892,-0.22331 0.0423,-0.13935 0.11147,-0.25612 0.20637,-0.34925 l 0.83397,-0.83432 c -3.1129,-3.57152 -4.92583,-7.94844 -5.25003,-12.6746 h -1.18286 c -0.13194,0 -0.26212,-0.0339 -0.38665,-0.0998 -0.37112,-0.20179 -1.182509,-0.33655 -2.020003,-0.33655 -0.06385,0 -0.128764,0.003 -0.197909,0.0102 -0.312208,0.0324 -0.572205,0.14358 -0.82303,0.25153 -0.30727,0.13123 -0.624064,0.26705 -1.02482,0.26705 l -0.05433,-7.9e-4 c -0.06138,-0.002 -0.144991,-0.004 -0.247297,-0.006 l -0.357364,-0.008 c -0.874183,-0.0229 -1.6002,-0.0741 -2.218972,-0.15734 -0.200025,-0.0265 -0.399344,-0.0586 -0.591961,-0.0956 -0.08784,-0.0173 -0.172156,-0.0353 -0.255058,-0.0533 l -0.03704,-0.01 c -1.083028,-0.24871 -1.639711,-0.67945 -1.639711,-1.27529 0,-0.71861 0.783519,-1.18216 2.395008,-1.41676 1.040341,-0.15134 2.178403,-0.17356 2.725561,-0.18379 0.09455,-0.002 0.171097,-0.003 0.226483,-0.005 0.424039,-0.0152 0.767997,0.13299 1.072092,0.26352 l 0.08714,0.037 c 0.282575,0.11959 0.567266,0.22754 0.941211,0.22754 0.680508,0 1.36913,-0.0924 1.796697,-0.24094 0.08537,-0.0296 0.159807,-0.0614 0.221547,-0.0945 0.12135,-0.066 0.25576,-0.1009 0.38841,-0.1009 h 1.18286 c 0.32455,-4.72651 2.13748,-9.10343 5.25004,-12.6746 l -0.83609,-0.83608 c -0.0945,-0.0945 -0.1651,-0.21484 -0.2039,-0.34854 -0.11783,-0.39547 -0.60713,-1.07915 -1.18992,-1.66194 -0.28928,-0.28963 -0.60325,-0.41557 -0.90629,-0.53728 -0.32596,-0.13053 -0.66075,-0.26423 -0.95214,-0.57468 -0.0423,-0.0452 -0.10407,-0.109 -0.17957,-0.18767 -0.35313,-0.36689 -1.08726,-1.1296 -1.69651,-1.93005 -0.12946,-0.1693 -0.24799,-0.33334 -0.35101,-0.4868 -0.598659,-0.88336 -0.79939,-1.54199 -0.613476,-2.01295 0.04198,-0.11077 0.107246,-0.21132 0.194026,-0.2981 0.50835,-0.50835 1.38995,-0.28222 2.69522,0.69144 0.84103,0.62724 1.65947,1.41394 2.05282,1.79247 l 0.16898,0.16157 c 0.30938,0.29104 0.44309,0.62512 0.57256,0.94791 l 0.0339,0.084 c 0.11465,0.28399 0.23989,0.56127 0.50517,0.82657 0.4819,0.48189 1.034,0.90381 1.44004,1.09996 0.084,0.0406 0.15911,0.0706 0.22225,0.0892 0.0413,0.0138 0.0681,0.0233 0.0945,0.0346 0.0963,0.0409 0.18168,0.0981 0.2533,0.17004 l 0.83608,0.83608 c 3.57152,-3.11319 7.94879,-4.92612 12.675313,-5.25032 v -1.18216 c 0,-0.1344 0.0339,-0.26529 0.10124,-0.38876 0.19721,-0.36406 0.33479,-1.19415 0.33479,-2.01789 0,-0.40957 -0.13229,-0.72002 -0.26106,-1.02023 -0.13793,-0.32244 -0.28045,-0.6544 -0.2667,-1.08056 0.002,-0.0578 0.004,-0.13688 0.005,-0.23424 0.01,-0.52035 0.0314,-1.59385 0.16581,-2.58974 0.0257,-0.19826 0.0582,-0.39758 0.0956,-0.59126 0.24977,-1.29999 0.68756,-1.93181 1.33808,-1.93181 0.71896,0 1.18251,0.78317 1.41711,2.39501 0.1517,1.0414 0.17322,2.17911 0.18345,2.72556 l 0.005,0.22578 c 0.013,0.42651 -0.12877,0.75776 -0.266,1.07809 l -0.0349,0.0822 c -0.11959,0.28222 -0.22719,0.56691 -0.22719,0.94121 0,0.68015 0.0924,1.36842 0.2406,1.79634 0.0307,0.0875 0.0621,0.16157 0.0938,0.22049 0.0674,0.12488 0.10195,0.25611 0.10195,0.38982 v 1.18215 c 4.72617,0.32421 9.10308,2.13749 12.6746,5.2504 l 0.83573,-0.83574 c 0.0956,-0.0956 0.2159,-0.1658 0.3489,-0.20425 0.39511,-0.11783 1.07879,-0.60678 1.66229,-1.18922 0.28963,-0.29033 0.41522,-0.6043 0.53693,-0.90769 0.12347,-0.30939 0.26387,-0.6597 0.57432,-0.95145 0.0434,-0.0406 0.10301,-0.0977 0.17604,-0.16792 0.37147,-0.35736 1.14441,-1.10031 1.94168,-1.70815 0.16052,-0.12241 0.32385,-0.24024 0.48613,-0.35031 1.0855,-0.73518 1.83762,-0.87665 2.2987,-0.43215 0.52141,0.52141 0.29492,1.40265 -0.67769,2.70792 -0.0427,0.0575 -0.0868,0.11501 -0.13158,0.17251 -0.60149,0.77682 -1.29046,1.49331 -1.66017,1.87819 -0.0684,0.0709 -0.12347,0.12806 -0.16193,0.16969 -0.29351,0.3122 -0.62935,0.44626 -0.95391,0.57608 l -0.0794,0.0314 c -0.28504,0.11571 -0.56303,0.24201 -0.8262,0.50483 -0.48225,0.48224 -0.90347,1.03434 -1.09961,1.44109 -0.0402,0.0822 -0.0706,0.15734 -0.0896,0.2219 -0.0406,0.13511 -0.10901,0.25153 -0.20285,0.34643 l -0.83714,0.83749 c 3.11256,3.57152 4.92548,7.94808 5.24969,12.67425 h 1.18286 c 0.13476,0 0.26599,0.0346 0.38982,0.10266 0.36371,0.19614 1.19309,0.33372 2.01612,0.33372 0.41029,0 0.72073,-0.13299 1.022,-0.26176 0.30586,-0.13123 0.65299,-0.28081 1.0788,-0.26634 l 0.23495,0.005 c 0.51505,0.01 1.58714,0.0307 2.58939,0.1658 0.19931,0.0265 0.39863,0.0586 0.59125,0.096 1.29999,0.24977 1.93181,0.68757 1.93181,1.33809 0,0.71896 -0.78352,1.18216 -2.39465,1.41711 -0.15981,0.0233 -0.32244,0.043 -0.46003,0.0589 -0.90522,0.0991 -1.79493,0.11606 -2.27259,0.12488 l -0.27411,0.006 c -0.40075,0 -0.7179,-0.13582 -1.02447,-0.26705 l -0.0804,-0.0342 c -0.28257,-0.11995 -0.56762,-0.22754 -0.94191,-0.22754 -0.67981,0 -1.36843,0.0924 -1.796,0.24094 -0.0921,0.0328 -0.16474,0.0632 -0.22013,0.0935 -0.12382,0.0674 -0.25541,0.10196 -0.39088,0.10196 h -1.1818 c -0.3242,4.72651 -2.13713,9.10307 -5.25039,12.6746 l 0.83643,0.83608 c 0.0938,0.0942 0.1644,0.21414 0.20356,0.34713 0.1083,0.36231 0.53163,0.97437 1.05339,1.52294 0.0462,0.0497 0.0907,0.0956 0.13617,0.14041 0.28963,0.28928 0.60325,0.41522 0.90699,0.53693 0.32527,0.13017 0.6604,0.26458 0.9518,0.57467 0.0409,0.043 0.097,0.10196 0.1658,0.17357 0.18627,0.19367 0.46673,0.48613 0.77964,0.83291 0.35737,0.39687 0.66675,0.76658 0.93028,1.11089 0.12312,0.16087 0.2413,0.32456 0.35137,0.48648 0.73448,1.0855 0.87594,1.83727 0.4318,2.2987 -0.54081,0.54434 -1.38466,0.30798 -2.70828,-0.67768 -0.8449,-0.63006 -1.66546,-1.42064 -2.05987,-1.80023 -0.0663,-0.0642 -0.121,-0.11677 -0.16086,-0.15451 -0.0695,-0.0639 -0.133,-0.13406 -0.19368,-0.21414 -0.1838,-0.24342 -0.28328,-0.49212 -0.37888,-0.73237 l -0.0346,-0.0861 c -0.11536,-0.28469 -0.24165,-0.56268 -0.50483,-0.82585 -0.40111,-0.40111 -0.84984,-0.76094 -1.23155,-0.98637 -0.072,-0.0434 -0.14075,-0.0808 -0.20778,-0.11288 -0.0843,-0.0409 -0.15946,-0.0709 -0.22296,-0.0896 -0.13723,-0.0413 -0.25435,-0.11042 -0.34854,-0.20461 l -0.83573,-0.83574 c -3.57152,3.11291 -7.94844,4.92549 -12.67425,5.24934 l -0.005,1.25624 c -0.0109,0.11183 -0.0437,0.2166 -0.097,0.31538 -0.1972,0.36442 -0.33479,1.19415 -0.33479,2.01754 0,0.40957 0.13265,0.72002 0.26141,1.01988 l 0.0646,0.1531 c 0.10372,0.25189 0.21379,0.55175 0.20215,0.92746 -0.002,0.0515 -0.003,0.11923 -0.005,0.20108 l -8e-4,0.0349 c -0.01,0.51435 -0.0303,1.58574 -0.16545,2.58833 -0.0272,0.20461 -0.0596,0.40358 -0.096,0.59161 -0.24977,1.29963 -0.68757,1.93181 -1.33809,1.93181 z"
           style="fill:#1e2f4c;fill-opacity:1;fill-rule:nonzero;stroke:#1e2f4c;stroke-width:0.307374;stroke-linecap:butt;stroke-linejoin:miter;stroke-miterlimit:10;stroke-dasharray:none;stroke-opacity:1"
           id="path114" />
        <path
           d="m 103.06286,120.36685 c -0.98037,0.11324 -1.30387,-1.71979 -1.36137,-2.64972 0.4251,0.0109 1.02235,-0.18379 1.25201,-0.54045 l 0.10407,0.21696 c -0.12877,0.30339 -0.25365,0.63112 -0.25365,1.06962 0,0.69921 0.0928,1.42522 0.25894,1.90359 z"
           style="fill:#eaecd5;fill-opacity:1;fill-rule:nonzero;stroke:none;stroke-width:0.352777"
           id="path116" />
        <path
           d="m 101.50993,118.5324 c 0.0406,0.15135 0.0699,0.30727 0.0811,0.46461 0.0141,0.15769 0.0141,0.31609 0.005,0.47414 -0.0113,0.15769 -0.0275,0.31573 -0.0589,0.47131 -0.0381,0.15169 -0.0296,0.32385 -0.20355,0.43427 -0.078,-0.18556 0.005,-0.31609 0.0279,-0.46955 0.0307,-0.14958 0.0596,-0.29986 0.0797,-0.45156 0.0233,-0.15134 0.0388,-0.30409 0.0501,-0.45755 0.0134,-0.15416 0.0134,-0.30833 0.0187,-0.46567 z"
           style="fill:#eaecd5;fill-opacity:1;fill-rule:nonzero;stroke:none;stroke-width:0.352777"
           id="path118" />
        <path
           d="m 100.81708,120.75032 c -0.043,0.0737 -0.0684,1.4799 -0.0684,1.56386 h 2.64195 c 0,-0.0843 -0.0257,-1.49084 -0.0695,-1.56527 -0.0459,-0.079 -0.0885,-0.17145 -0.1277,-0.27552 -0.18557,-0.49107 -0.28858,-1.23614 -0.28858,-1.95333 0,-0.44979 0.139,-0.78634 0.28223,-1.09749 0.15769,-0.3422 0.31926,-0.65229 0.30621,-1.0474 -0.0134,-0.39053 -0.0127,-1.76107 -0.20708,-2.9912 -0.18098,-1.14547 -0.52987,-2.17029 -1.21603,-2.17029 h -10e-4 c -0.59196,0 -0.93486,0.76341 -1.13206,1.70991 -0.0399,0.1905 -0.0748,0.38841 -0.10372,0.58843 -0.17497,1.19522 -0.17356,2.48603 -0.18697,2.86315 -0.0254,0.75424 0.58808,1.20191 0.58808,2.14489 0,0.86995 -0.1524,1.78011 -0.41733,2.23026 z m 0.29633,-7.67045 c 0.008,-0.0406 0.0159,-0.0808 0.0243,-0.12065 0.20955,-1.004 0.5401,-1.55716 0.93239,-1.55716 0.44874,0 0.80928,0.71332 1.01389,2.00907 0.10618,0.67381 0.15346,1.39453 0.17674,1.96744 -0.013,0.69427 -0.17568,1.33703 -0.84208,1.33421 -1.02094,-0.003 -1.44851,-2.38408 -1.30528,-3.63291 z"
           style="fill:#1e2f4c;fill-opacity:1;fill-rule:nonzero;stroke:none;stroke-width:0.352777"
           id="path120" />
        <path
           d="m 121.90931,121.99915 c -0.0561,0.12912 -1.24919,1.63865 -1.29646,1.77059 -0.0466,0.13159 -0.091,0.2667 -0.12559,0.40746 l -0.0995,0.43462 c -0.037,0.14993 -0.0691,0.30233 -0.12241,0.46708 -0.11995,-0.14005 -0.18556,-0.29739 -0.23566,-0.4572 -0.0466,-0.16016 -0.0639,-0.32597 -0.0582,-0.49283 0.005,-0.16757 0.0395,-0.33655 0.10019,-0.5013 0.0624,-0.16404 0.16087,-0.32385 0.29563,-0.46002 z"
           style="fill:#1e2f4c;fill-opacity:1;fill-rule:nonzero;stroke:none;stroke-width:0.352777"
           id="path122" />
        <path
           d="m 124.05843,123.16685 c -0.56586,0.68897 -1.66123,1.43968 -2.25848,1.62348 -0.59726,0.1838 -0.90876,0.34925 -1.26154,0.68898 -0.66781,0.64311 -2.13077,2.32727 -2.13077,2.32727 0,0 -1.18992,-0.28998 -1.37019,0.69462 l 0.57079,0.54469 0.46814,0.4378 1.02482,-0.98249 c 0.0579,-0.0586 0.0984,-0.13123 0.12241,-0.21026 0.0251,-0.0833 0.0614,-0.17462 0.10866,-0.27093 0.22013,-0.45685 0.66886,-1.0354 1.16275,-1.53 0.30974,-0.30938 0.63042,-0.45296 0.93557,-0.57679 0.33514,-0.13511 0.65228,-0.24659 0.91616,-0.5274 0.24412,-0.26106 1.09714,-1.11372 1.80093,-2.02248 z"
           style="fill:#1e2f4c;fill-opacity:1;fill-rule:nonzero;stroke:none;stroke-width:0.352777"
           id="path124" />
        <path
           d="m 84.911033,128.26096 1.22026,1.20156 1.77412,-1.81081 -1.26965,-0.69003 -0.50447,0.19015 c 0,0 0.14006,-0.35702 0,-0.42299 -0.1397,-0.0653 -0.83926,-0.0423 -1.0033,-0.007 -0.16228,0.0363 -0.47766,-0.0593 -1.13065,-0.83678 -0.65264,-0.77894 -1.14229,-1.98791 -1.14229,-1.98791 l -0.88618,-0.99307 c 0.79093,0.60325 1.60337,1.44216 1.65276,1.49366 -0.0335,-0.0515 -0.5214,-0.85725 -1.89371,-2.19604 -1.4224,-1.38818 -2.56822,-1.62348 -2.74179,-1.38395 -0.161924,0.42298 0.13265,1.09044 0.58949,1.78294 0.10725,0.16334 0.22402,0.32844 0.34502,0.49107 0.59902,0.80715 1.3208,1.58009 1.69651,1.9812 -0.71261,-0.83503 -1.65347,-2.16888 -1.75895,-2.87479 2.21615,3.39937 3.24203,3.23074 3.45087,3.36303 0.21096,0.13194 1.16593,1.07739 1.35255,1.40018 0.18627,0.3235 0.24941,1.29928 0.24941,1.29928 z"
           style="fill:#1e2f4c;fill-opacity:1;fill-rule:nonzero;stroke:none;stroke-width:0.352777"
           id="path126" />
        <path
           d="m 79.200973,144.62667 c 0.0102,-0.2854 0.0141,-0.5715 0.0162,-0.8576 -0.006,-0.10901 -0.0106,-0.21696 -0.0127,-0.32244 -0.573264,0.38841 -1.488017,0.27834 -2.203803,0.0466 -0.906991,-0.29457 -1.696861,-0.94792 -2.501547,-0.98461 -0.805039,-0.036 -1.313391,0.23989 -1.313391,0.23989 0,0 1.039283,-0.0102 1.254125,0.21484 -0.593373,-0.0406 -1.175456,-0.0423 -1.710267,-0.0145 -1.451681,0.0755 -2.551995,0.36866 -2.569281,0.69145 -0.02328,0.44132 0.339725,0.77258 0.854781,1.06715 v 0.001 c 0.0822,0.0208 0.166864,0.042 0.253294,0.0621 0.189442,0.043 0.386292,0.0804 0.585259,0.11112 0.802922,0.12736 1.649236,0.16793 2.229908,0.18556 -0.841375,-0.0649 -1.818217,-0.51011 -1.818217,-0.51011 1.900061,0.21414 3.664303,-0.14005 3.965575,-0.23601 0.30092,-0.097 0.370417,0.14217 0.370417,0.14217 0.07514,-0.009 0.153105,-0.0141 0.235655,-0.0141 0.864659,0 1.770945,0.1644 2.218622,0.45015 0.0466,0.0293 0.096,0.0497 0.14711,0.0621 -0.007,-0.11183 -0.006,-0.22472 -0.002,-0.33479 z"
           style="fill:#1e2f4c;fill-opacity:1;fill-rule:nonzero;stroke:none;stroke-width:0.352777"
           id="path128" />
        <path
           d="m 79.209793,144.91595 c -0.29245,-0.9719 -0.0134,-2.24155 -0.001,-2.29553 l 1.52647,0.0183 c 0.0194,0.35701 -0.11183,1.27776 -0.001,2.25284 z"
           style="fill:#1e2f4c;fill-opacity:1;fill-rule:nonzero;stroke:none;stroke-width:0.352777"
           id="path130" />
        <path
           d="m 80.295643,163.89857 c 0.48225,-0.23319 0.94933,-0.50412 1.3843,-0.82338 0.21802,-0.15946 0.42827,-0.32985 0.62724,-0.514 0.19932,-0.18345 0.387,-0.381 0.55033,-0.59972 -0.13828,0.2353 -0.30409,0.45614 -0.48436,0.66357 -0.17956,0.20814 -0.37324,0.40499 -0.57609,0.59196 -0.4064,0.37465 -0.85301,0.70662 -1.32397,1.0033 z"
           style="fill:#1e2f4c;fill-opacity:1;fill-rule:nonzero;stroke:none;stroke-width:0.352777"
           id="path132" />
        <path
           d="m 80.292823,164.20513 c 0.35137,-0.0921 0.69391,-0.23601 1.02094,-0.4124 0.32702,-0.17674 0.63923,-0.38593 0.9338,-0.61912 0.29422,-0.23389 0.57115,-0.49177 0.82197,-0.77435 0.24942,-0.28292 0.47872,-0.58914 0.63818,-0.93556 -0.13123,0.35842 -0.33761,0.68721 -0.56691,0.99377 -0.23107,0.30692 -0.49142,0.59161 -0.77329,0.85514 -0.28223,0.26317 -0.58632,0.50482 -0.91335,0.71719 -0.32702,0.21167 -0.67768,0.39476 -1.05445,0.52705 z"
           style="fill:#1e2f4c;fill-opacity:1;fill-rule:nonzero;stroke:none;stroke-width:0.352777"
           id="path134" />
        <path
           d="m 87.630253,159.87126 -2.57987,-1.05481 c -0.0589,0.0582 -0.0981,0.13159 -0.12206,0.20991 -0.025,0.0836 -0.0617,0.17462 -0.10866,0.27163 -0.0829,0.17181 -0.19826,0.36054 -0.33619,0.55598 0.16333,0.79481 -0.34749,2.07645 -0.77541,2.52871 -0.42933,0.45191 -1.03364,0.81951 -1.86443,1.22908 l -1.34549,0.71967 0.2226,-0.46708 -0.46426,-0.25259 c -0.0917,0.11465 -0.2734,0.33726 -0.36089,0.45367 -0.67451,0.90453 -1.180392,1.96109 -0.74401,2.39642 7.2e-4,0.001 0.15628,0.14429 0.15628,0.14429 0.37607,0.37571 1.03435,0.0632 1.81187,-0.4632 0.15699,-0.10583 0.45473,-0.35983 0.61066,-0.47942 0.93416,-0.71297 1.68451,-1.46297 1.95298,-1.71486 0.53551,-0.50341 0.52423,-1.27141 1.17369,-1.92087 0.59902,-0.60008 1.39277,-1.20015 1.87149,-1.34232 0.0783,-0.0229 0.15098,-0.0635 0.20884,-0.12136 z m -7.73466,5.50086 c -0.0526,0.21237 -0.1912,0.36054 -0.30974,0.33126 -0.11853,-0.0293 -0.17215,-0.22542 -0.11959,-0.4378 0.0526,-0.21237 0.19156,-0.36054 0.31009,-0.33126 0.11854,0.0293 0.17216,0.22543 0.11924,0.4378 z"
           style="fill:#1e2f4c;fill-opacity:1;fill-rule:nonzero;stroke:none;stroke-width:0.352777"
           id="path136" />
        <path
           d="m 103.26042,169.87462 c -0.13406,-0.31326 -0.27305,-0.63746 -0.27305,-1.07597 0,-0.85866 0.14146,-1.69651 0.35207,-2.08597 0.0444,-0.0822 0.0716,-0.16722 0.0804,-0.25718 l 0.004,-0.0497 c 2.6e-4,-0.005 2.6e-4,-0.009 2.6e-4,-0.0134 l -0.36724,-0.007 -0.003,0.0377 c -0.004,0.0367 -0.0162,0.0751 -0.0374,0.11465 -0.24059,0.44486 -0.39617,1.33209 -0.39617,2.2606 0,0.514 0.16087,0.88971 0.30269,1.22062 0.0212,0.0494 0.042,0.0984 0.0621,0.14675 0.10654,0.25894 0.17145,0.4692 0.16369,0.7172 -0.002,0.0593 -0.003,0.14076 -0.005,0.2413 -0.0102,0.50659 -0.0307,1.56139 -0.16158,2.53082 -0.0251,0.19121 -0.0557,0.3803 -0.091,0.56269 -0.18802,0.9786 -0.48506,1.51765 -0.83749,1.51765 -0.40322,0 -0.72672,-0.69533 -0.91087,-1.95792 -0.14676,-1.00894 -0.16828,-2.12584 -0.17815,-2.66242 -0.002,-0.0963 -0.003,-0.17497 -0.005,-0.23212 -0.01,-0.31292 0.0991,-0.56762 0.22542,-0.86219 l 0.0349,-0.0808 c 0.0568,-0.13512 0.11642,-0.28223 0.16334,-0.44415 0.0706,-0.23072 0.10477,-0.45896 0.10477,-0.69744 0,-0.74471 -0.10089,-1.47885 -0.26987,-1.96497 -0.0409,-0.11642 -0.0822,-0.21202 -0.12665,-0.29493 -0.0265,-0.0483 -0.0402,-0.0988 -0.0402,-0.1464 h -0.3676 c 0,0.10866 0.0293,0.22014 0.0843,0.32103 0.0353,0.0653 0.0688,0.14464 0.10337,0.24165 0.15346,0.44203 0.24871,1.14829 0.24871,1.84362 0,0.20179 -0.0286,0.39476 -0.0889,0.59266 -0.0423,0.14535 -0.097,0.28046 -0.14993,0.40499 l -0.0342,0.0801 c -0.13124,0.30692 -0.26741,0.62371 -0.25506,1.01847 0.002,0.0561 0.004,0.133 0.005,0.22754 0.0102,0.54434 0.0318,1.67676 0.18203,2.70828 0.22295,1.52929 0.63994,2.27259 1.27529,2.27259 0.57115,0 0.96273,-0.59407 1.19768,-1.81574 0.0367,-0.18909 0.0684,-0.38559 0.0945,-0.5835 0.13335,-0.99024 0.15452,-2.05846 0.1644,-2.5721 0.002,-0.0988 0.003,-0.17921 0.005,-0.23707 v -2.6e-4 c 0.0106,-0.34713 -0.0928,-0.63006 -0.19121,-0.86889 -0.0208,-0.0501 -0.0423,-0.10019 -0.0642,-0.15099 z"
           style="fill:#1e2f4c;fill-opacity:1;fill-rule:nonzero;stroke:none;stroke-width:0.352777"
           id="path138" />
        <path
           d="m 103.16446,170.11945 c 0.0984,0.24201 0.17674,0.48296 0.16792,0.76941 -0.012,0.3676 -0.0113,1.6256 -0.16863,2.79047 -0.0254,0.19509 -0.0564,0.3877 -0.0928,0.57362 -0.17709,0.92216 -0.48507,1.66652 -1.01705,1.66652 h -8e-4 c -0.61665,0 -0.92992,-0.99871 -1.09255,-2.11525 -0.17462,-1.1991 -0.17357,-2.53506 -0.18556,-2.91536 -0.012,-0.38488 0.133,-0.68686 0.27481,-1.02094 0.0568,-0.1337 0.11289,-0.2734 0.15699,-0.4251 0.0579,-0.1905 0.0963,-0.39969 0.0963,-0.64417 0,-0.6992 -0.0924,-1.42487 -0.25859,-1.90394 -0.036,-0.10089 -0.18379,-0.25118 -0.26952,-0.26917 -0.21096,-0.0441 -0.0476,-1.61537 -0.0476,-1.69757 h 2.72203 l -0.008,0.0109 c -0.0402,0.0536 0.17322,0.94263 -0.10865,1.63125 -0.28222,0.69003 -1.05975,1.18039 -1.27917,1.53952 -0.16828,-0.007 -0.43216,-0.25999 -0.45579,-0.44379 0.0402,0.66604 -0.012,1.38359 -0.39053,1.77694 -0.0339,0.77999 -0.0183,2.12796 1.14477,2.11208 0.51294,-0.006 0.72496,-0.69286 0.80327,-1.45874 z m -1.47743,4.31447 c -0.0183,0.2413 0.091,0.50836 0.23212,0.68016 0.14076,0.1718 0.31327,0.248 0.42016,0.1083 0.35984,-0.46919 -0.65228,-0.78846 -0.65228,-0.78846 z m 1.2252,-4.94947 c 0.001,0.004 0.002,0.007 0.003,0.01 0.001,0.004 0.002,0.007 0.003,0.01 -0.002,-0.006 -0.004,-0.013 -0.006,-0.0198 z m -0.0183,-0.0603 c 0.002,0.005 0.003,0.0102 0.005,0.0152 0.001,0.005 0.003,0.0102 0.005,0.0155 -0.003,-0.0102 -0.006,-0.0204 -0.009,-0.0307 z m -0.0885,-0.78634 -2.7e-4,0.0212 v 0.0159 l -2.6e-4,0.019 -2.7e-4,0.0159 v 0.0187 l -2.6e-4,0.0173 v 0.0169 0.0177 0.0183 -0.0208 -0.024 -0.0106 l 2.6e-4,-0.0229 2.7e-4,-0.0303 2.6e-4,-0.0257 2.7e-4,-0.0265 c 2.6e-4,-0.006 2.6e-4,-0.0124 7.9e-4,-0.0183 z m 0.007,-0.21872 -8e-4,0.0173 -7.9e-4,0.0173 -8e-4,0.0176 -7.9e-4,0.0173 -7.9e-4,0.0177 -8e-4,0.0173 -2.6e-4,0.0177 -8e-4,0.0187 8e-4,-0.0201 2.6e-4,-0.0173 8e-4,-0.0177 7.9e-4,-0.0173 7.9e-4,-0.0177 8e-4,-0.0173 7.9e-4,-0.0173 8e-4,-0.0162 c 2.6e-4,-0.006 7.9e-4,-0.0124 10e-4,-0.0187 z m 0.0162,-0.25788 -0.002,0.0275 -10e-4,0.0219 -0.001,0.0183 -0.001,0.0222 -0.002,0.0233 -0.001,0.0233 -0.002,0.0296 -8e-4,0.0113 0.001,-0.0243 0.002,-0.0367 0.002,-0.0293 0.001,-0.0194 0.002,-0.0243 0.002,-0.0303 8e-4,-0.013 c 7.9e-4,-0.006 10e-4,-0.0116 10e-4,-0.0173 z m 0.008,-0.097 -0.002,0.0212 0.002,-0.0212 c 0.001,-0.0124 0.002,-0.0247 0.004,-0.0374 z m 0.0177,-0.1718 c -8e-4,0.006 -0.001,0.012 -0.002,0.018 -2.7e-4,0.006 -10e-4,0.0124 -0.002,0.0183 z m 0.0272,-0.2085 -0.002,0.019 -0.003,0.0233 -0.003,0.0229 -0.003,0.0236 -0.003,0.0233 -0.003,0.0243 -0.002,0.0173 -0.002,0.0166 0.004,-0.0282 0.001,-0.008 0.003,-0.024 0.003,-0.0226 0.003,-0.024 0.003,-0.0226 0.003,-0.0243 0.002,-0.0169 c 10e-4,-0.005 0.002,-0.0106 0.002,-0.0162 z m 0.008,-0.0526 0.003,-0.0183 c 0.004,-0.0219 0.007,-0.0434 0.0106,-0.0649 -0.004,0.0226 -0.007,0.0455 -0.0113,0.0684 z m 0.0836,-0.42968 0.004,-0.0166 z m 0.0811,-0.28539 c 0.002,-0.005 0.003,-0.009 0.005,-0.0138 0.001,-0.005 0.003,-0.009 0.005,-0.0134 z m 0.024,-0.0674 c 0.003,-0.009 0.006,-0.0173 0.01,-0.0261 l -0.0145,0.0395 z m 0.12347,-0.27517 10e-4,-0.004 -0.006,0.0141 -0.005,0.0113 -0.006,0.013 -0.006,0.012 c -8e-4,0.002 -0.002,0.004 -0.002,0.005 l 0.006,-0.0109 0.005,-0.01 0.005,-0.0109 0.005,-0.0102 z m 0.23636,-1.55152 2.6e-4,-0.003 -0.004,0.0169 -0.003,0.012 -0.004,0.0152 -0.004,0.0127 -0.002,0.007 -0.005,0.0116 c -7.9e-4,0.002 -0.001,0.004 -0.002,0.006 l 0.004,-0.0102 0.005,-0.0127 0.004,-0.0124 0.003,-0.01 0.003,-0.0106 0.003,-0.0127 z m 0.005,-0.0328 7.9e-4,-0.006 -7.9e-4,0.006 c -2.7e-4,0.002 -8e-4,0.004 -0.001,0.006 z"
           style="fill:#1e2f4c;fill-opacity:1;fill-rule:nonzero;stroke:none;stroke-width:0.352777"
           id="path140" />
        <path
           d="m 125.07125,166.55463 v 0.001 c -0.47272,0.45579 -1.41993,0.078 -2.401,-0.62618 -1.05234,-0.756 -2.13184,-1.87219 -2.4324,-2.14453 -0.0649,-0.0575 -0.12065,-0.11819 -0.1704,-0.18133 v -0.001 c -0.005,-0.0374 -0.11923,-1.03047 0.45474,-1.60126 -0.16193,0.48542 -0.0497,1.00718 -0.0497,1.00718 0,0 0.0557,-0.6417 0.65934,-0.84631 -0.31045,0.36089 -0.23707,0.58843 -0.19297,0.70238 0.0437,0.11324 0.17392,0.58737 0.57926,1.03152 0.40393,0.44344 1.33667,0.86924 1.77306,0.49107 0.31291,-0.27094 0.32103,-0.68545 0.0808,-0.98884 -0.0956,-0.12065 -0.0882,-0.33655 -0.15452,-0.45402 0.32174,0.3436 0.67134,0.73695 0.98849,1.137 0.12982,0.16298 0.25294,0.32808 0.36865,0.49212 0.57044,0.81174 0.90452,1.58891 0.49671,1.9812 z"
           style="fill:#1e2f4c;fill-opacity:1;fill-rule:nonzero;stroke:none;stroke-width:0.352777"
           id="path142" />
        <path
           d="m 119.14247,158.98755 c -0.0254,-0.0861 -0.98601,-1.15323 -1.04951,-1.21708 l -1.83515,1.81998 c 0.0649,0.0646 1.04634,1.12395 1.13347,1.15041 0.0917,0.0275 0.19227,0.0677 0.2981,0.11959 0.0833,0.0392 0.16898,0.0861 0.25753,0.13934 l 0.26423,-0.0727 c 0.37924,0.22684 1.32186,0.83432 1.7907,0.53764 0.21555,-0.13759 0.32808,-0.40499 0.38559,-0.65299 -0.59444,-0.62477 -1.10032,-1.33915 -1.24496,-1.82422 z"
           style="fill:#1e2f4c;fill-opacity:1;fill-rule:nonzero;stroke:none;stroke-width:0.352777"
           id="path144" />
        <path
           d="m 128.65795,143.32069 c -0.70909,0.64558 -1.99426,0.47766 -3.06317,0.31573 0.60325,0.35137 1.32044,0.40746 1.32044,0.40746 -0.35348,0.0896 -1.34055,0.19227 -1.68275,0.0381 -0.009,-0.004 -0.0162,-0.007 -0.0257,-0.0113 -0.36265,-0.14499 -1.28693,-0.18097 -1.66511,-0.19438 -0.31185,-0.0106 1.15676,1.08726 1.15676,1.08726 0.0847,0 0.16616,-0.0254 0.24059,-0.0698 0.0783,-0.0459 0.17145,-0.0882 0.27447,-0.12806 0.49,-0.18626 1.23295,-0.28998 1.94803,-0.28998 0.44874,0 0.78423,0.1397 1.09467,0.28363 0.34114,0.1584 0.65088,0.32068 1.04458,0.30763 0.34149,-0.0116 1.43192,-0.0124 2.52236,-0.14323 0.18521,-0.15311 0.35948,-0.25894 0.49848,-0.27658 0.61136,-0.0769 1.14511,-0.32138 1.14511,-0.79657 2.7e-4,-0.66076 -4.17406,-1.10843 -4.80871,-0.52987 z"
           style="fill:#1e2f4c;fill-opacity:1;fill-rule:nonzero;stroke:none;stroke-width:0.352777"
           id="path146" />
      </g>
    </g>
  </g>
</svg>
